# Blender v2.77 (sub 0) OBJ File: ''
# www.blender.org
mtllib ufo.mtl
o Cube
v -3.116000 -0.017911 -3.116000
v -3.116000 -0.017911 3.116000
v 3.116000 -0.017911 3.116000
v 3.116000 -0.017911 -3.116000
v -3.116000 -5.000000 3.116000
v 3.116000 -5.000000 3.116000
v 3.116000 -5.000000 -3.116000
v -3.116000 -5.000000 -3.116000
v -5.002470 -9.982090 -5.002470
v -5.002470 -5.000000 -5.002470
v 5.002470 -5.000000 -5.002470
v 5.002470 -9.982090 -5.002470
v 5.002470 -9.982090 5.002470
v 5.002470 -5.000000 5.002470
v -5.002470 -5.000000 5.002470
v -5.002470 -9.982090 5.002470
vt 0.250000 0.483871
vt 0.250000 0.741935
vt -0.000000 0.741935
vt -0.000000 0.483871
vt 1.000000 0.741935
vt 0.750000 0.741935
vt 0.750000 0.483871
vt 1.000000 0.483871
vt 0.625000 0.225806
vt 0.625000 0.483871
vt 0.500000 0.483871
vt 0.500000 0.225806
vt 0.500000 0.483871
vt 0.500000 0.741935
vt 0.046875 0.741935
vt 0.203125 0.741935
vt 0.203125 1.000000
vt 0.046875 1.000000
vt 0.000000 0.483871
vt 0.000000 0.000000
vt 0.250000 0.000000
vt 0.250000 0.483871
vt 0.953125 0.741935
vt 0.953125 1.000000
vt 0.796875 1.000000
vt 0.796875 0.741935
vt 0.250000 0.000000
vt 0.500000 0.000000
vt 0.546875 1.000000
vt 0.546875 0.741935
vt 0.703125 0.741935
vt 0.703125 1.000000
vt 0.625000 0.225806
vt 0.625000 0.483871
vt 0.750000 0.483871
vt 0.750000 0.225806
vt 0.296875 0.741935
vt 0.453125 0.741935
vt 0.453125 1.000000
vt 0.296875 1.000000
vn -0.577400 -0.577400 0.577400
vn -0.577400 0.577400 0.577400
vn -0.750900 0.344800 -0.563300
vn -0.577400 -0.577400 -0.577400
vn 0.577400 0.577400 -0.577400
vn 0.577400 -0.577400 -0.577400
vn 0.577400 0.577400 0.577400
vn -0.577400 0.577400 -0.577400
vn 0.519100 -0.357300 0.776500
vn 0.471600 0.421800 0.774400
vn 0.577400 -0.577400 0.577400
usemtl Material
s 1
f 16/1/1 15/2/2 10/3/3 9/4/4
f 10/5/3 11/6/5 12/7/6 9/8/4
f 3/9/7 4/10/5 1/11/8 2/12/2
f 16/1/1 13/13/9 14/14/10 15/2/2
f 8/15/4 5/16/1 2/17/2 1/18/8
f 10/19/3 15/20/2 14/21/10 11/22/5
f 7/23/6 8/24/4 1/25/8 4/26/5
f 9/27/4 12/28/6 13/13/9 16/1/1
f 6/29/11 7/30/6 4/31/5 3/32/7
f 5/33/1 8/34/4 7/35/6 6/36/11
f 13/13/9 12/7/6 11/6/5 14/14/10
f 5/37/1 6/38/11 3/39/7 2/40/2
